<?xml version="1.0" encoding="utf-8"?>
<!-- Generator: Adobe Illustrator 21.0.2, SVG Export Plug-In . SVG Version: 6.00 Build 0)  -->
<svg version="1.1" id="Squared" xmlns="http://www.w3.org/2000/svg" xmlns:xlink="http://www.w3.org/1999/xlink" x="0px" y="0px"
	 viewBox="0 0 1500 1500" style="enable-background:new 0 0 1500 1500;" xml:space="preserve">
<style type="text/css">
	.st0{fill:#53BB9B;}
	.st1{fill:#C1C1C1;}
	.st2{fill:none;}
	.st3{fill:#282828;}
	.st4{fill:#0288D1;}
	.st5{opacity:0.3;}
	.st6{opacity:0.2;}
</style>
<path class="st0" d="M717.8,445.9c0,0.5,0,1.1,0,1.6C717.8,446.9,717.8,446.4,717.8,445.9z"/>
<path class="st0" d="M717.5,435.2L717.5,435.2c0,1.1,0.1,2.1,0.1,3.1C717.5,437.3,717.5,436.2,717.5,435.2z"/>
<path class="st1" d="M491.5,771c-0.5,0.2-1.1,0.4-1.6,0.5C490.5,771.4,491,771.2,491.5,771z"/>
<path class="st1" d="M501.5,767.4L501.5,767.4c-1,0.3-2,0.7-3,1.1C499.6,768.1,500.5,767.8,501.5,767.4z"/>
<g>
	<rect x="581.3" y="602.7" class="st2" width="811.8" height="200.4"/>
	<path class="st3" d="M603.5,773.5V611.6h44.8c12.5,0,23.9,3,34,8.9c10.2,5.9,18.1,14.2,23.9,25c5.8,10.7,8.7,22.7,8.9,36v21
		c0,13.5-2.8,25.6-8.5,36.5c-5.7,10.8-13.6,19.3-23.7,25.3c-10.2,6.1-21.5,9.2-34,9.2H603.5z M609.5,617.6v149.8h38.8
		c11.3,0,21.7-2.8,31-8.3c9.3-5.5,16.6-13.2,21.8-23.1c5.3-9.9,7.9-20.9,8-33v-20.8c0-12.1-2.6-23-7.7-32.9
		c-5.2-9.9-12.3-17.6-21.6-23.2c-9.2-5.6-19.4-8.5-30.6-8.6H609.5z"/>
	<path class="st3" d="M740.2,711c0-11.5,2.2-21.8,6.6-31c4.4-9.2,10.6-16.3,18.7-21.4c8-5.1,17.1-7.7,27.3-7.7
		c10.1,0,19.1,2.5,27.1,7.4c8,5,14.2,12,18.7,21.1c4.5,9.1,6.8,19.4,6.8,30.8v5.3c0,11.6-2.2,21.9-6.6,31
		c-4.4,9.1-10.6,16.2-18.6,21.3c-8,5.1-17.1,7.7-27.3,7.7c-10.2,0-19.2-2.5-27.3-7.6c-8-5-14.3-12.1-18.7-21.2
		c-4.4-9.1-6.7-19.3-6.8-30.6V711z M746.2,715.7c0,10,2,19.2,5.9,27.5c4,8.3,9.5,14.8,16.6,19.5c7.1,4.7,15.2,7,24.3,7
		c13.7,0,24.9-5.1,33.5-15.5c8.6-10.3,12.9-23.6,12.9-39.8V711c0-9.9-2-19-6-27.3c-4-8.4-9.5-14.9-16.6-19.6
		c-7.1-4.7-15.1-7.1-24.1-7.1c-13.7,0-24.9,5.2-33.6,15.7c-8.7,10.4-13,23.6-13,39.5V715.7z"/>
	<path class="st3" d="M960.6,773.5h-6v-80.7c-0.1-12.1-2.7-21-7.9-26.9c-5.2-5.9-13.5-8.8-25-8.8c-13.2,0-24,5.8-32.3,17.4
		c-5,7-8.3,14.7-9.9,23.1v76h-6.1V653.2h6.1v28.5c4.1-9.8,9.9-17.3,17.5-22.7c7.6-5.3,15.9-8,25.1-8c10.1,0,18.3,2.2,24.7,6.7
		c6.4,4.4,10.6,11.7,12.6,21.8c3.6-8.7,9.3-15.6,17.3-20.7c8-5.1,17-7.7,26.9-7.7c13,0,22.6,3.7,29,11c6.3,7.3,9.5,18.3,9.6,33v78.5
		h-6v-78c0-13.2-2.7-22.9-7.9-29.3c-5.3-6.3-13.6-9.4-25-9.3c-14.6,0.2-26.2,6-34.7,17.4c-4.9,6.6-7.6,13-8,19.1V773.5z"/>
	<path class="st3" d="M1159.3,773.5V754c-3.6,6.7-8.7,11.9-15.6,15.8s-15.4,5.8-25.9,5.8c-13.1,0-23-3.8-29.5-11.5
		s-9.9-18.8-10.1-33.5v-77.5h6v77.7c0.1,12.7,3,22.4,8.7,29c5.6,6.6,13.9,9.8,24.7,9.8c11.5,0,20.8-2.7,28-8.1
		c7.2-5.4,11.7-13.3,13.7-23.8v-84.6h6.1v120.3H1159.3z"/>
	<path class="st3" d="M1289.3,773.5h-6v-80.7c-0.1-12.1-2.7-21-7.9-26.9c-5.2-5.9-13.5-8.8-25-8.8c-13.2,0-24,5.8-32.3,17.4
		c-5,7-8.3,14.7-9.9,23.1v76h-6.1V653.2h6.1v28.5c4.1-9.8,9.9-17.3,17.5-22.7c7.6-5.3,15.9-8,25.1-8c10.1,0,18.3,2.2,24.7,6.7
		c6.4,4.4,10.6,11.7,12.6,21.8c3.6-8.7,9.3-15.6,17.3-20.7c8-5.1,17-7.7,26.9-7.7c13,0,22.6,3.7,29,11c6.3,7.3,9.5,18.3,9.6,33v78.5
		h-6v-78c0-13.2-2.7-22.9-7.9-29.3c-5.3-6.3-13.6-9.4-25-9.3c-14.6,0.2-26.2,6-34.7,17.4c-4.9,6.6-7.6,13-8,19.1V773.5z"/>
</g>
<g>
	<g>
		<circle class="st4" cx="314.9" cy="702.9" r="208"/>
	</g>
	<circle class="st5" cx="314.9" cy="702.9" r="55.5"/>
	<path class="st6" d="M479.6,829.8c27.1-35.1,43.3-79.1,43.3-127c0-113.4-90.8-205.6-203.7-207.9c-15,0.5-29.7,2.6-43.8,6.1
		c-25.8,34.6-41.1,77.6-41.1,124.1c0,114.9,93.1,208,208,208C455,833.2,467.5,832,479.6,829.8z"/>
	<circle class="st5" cx="314.9" cy="702.9" r="138.6"/>
</g>
<g>
</g>
<g>
</g>
<g>
</g>
<g>
</g>
<g>
</g>
<g>
</g>
<g>
</g>
<g>
</g>
<g>
</g>
<g>
</g>
<g>
</g>
</svg>
