<?xml version="1.0" encoding="utf-8"?>
<!-- Generator: Adobe Illustrator 19.0.0, SVG Export Plug-In . SVG Version: 6.00 Build 0)  -->
<svg version="1.1" id="Layer_1" xmlns="http://www.w3.org/2000/svg" xmlns:xlink="http://www.w3.org/1999/xlink" x="0px" y="0px"
	 viewBox="0 0 600 600" enable-background="new 0 0 600 600" xml:space="preserve">
<g>
	<g>
		<path id="XMLID_16_" fill="#4E4E4E" d="M515,433H93V162.207c0-5.632,5.912-9.207,11.544-9.207h402.8
			c5.632,0,7.655,3.575,7.655,9.207V433z"/>
		<rect id="XMLID_15_" x="109" y="173" fill="#F3F3F3" width="393" height="238"/>
		<path id="XMLID_14_" fill="#818181" d="M550.685,454H63.753c-7.647,0-20.394-9-20.394-9h527.722
			C571.081,445,558.333,454,550.685,454z"/>
		<path id="XMLID_13_" fill="#B4B4B4" d="M570,445H43v-12.56c0-2.815,2.641-4.44,5.458-4.44H565.98c2.818,0,4.02,1.626,4.02,4.44
			V445z"/>
		<path id="XMLID_12_" fill="#E6E6E5" d="M353.109,437h-91.78c-7.647,0-7.647-9-7.647-9h107.074
			C360.756,428,360.756,437,353.109,437z"/>
	</g>
	<path id="XMLID_11_" opacity="0.3" fill="#FFFFFF" d="M401.63,454h149.055c7.647,0,20.396-9,20.396-9H570v-12.56
		c0-2.815-1.202-4.44-4.02-4.44H515V162.207c0-5.632-2.023-9.207-7.655-9.207H252.083L401.63,454z"/>
	<g>
		<rect id="XMLID_10_" x="109" y="173" fill="#B4B4B4" width="393" height="22"/>
		<circle id="XMLID_9_" fill="#C1282D" cx="122.064" cy="183.236" r="5.063"/>
		<circle id="XMLID_8_" fill="#FAED24" cx="138.125" cy="183.236" r="5.063"/>
		<circle id="XMLID_7_" fill="#3DB54A" cx="154.187" cy="183.236" r="5.063"/>
	</g>
	<g>
		<rect id="XMLID_2_" x="108" y="195" fill="#00579B" width="393" height="22"/>
		<rect id="XMLID_4_" x="395" y="318" fill="#FBB03C" width="87" height="63"/>
		<rect id="XMLID_1_" x="196" y="318" fill="#DE8A26" width="187" height="63"/>
		<rect id="XMLID_3_" x="395" y="241" fill="#FBB03C" width="87" height="63"/>
		<rect id="XMLID_5_" x="295" y="241" fill="#FBB03C" width="88" height="63"/>
		<rect id="XMLID_6_" x="196" y="241" fill="#FBB03C" width="87" height="63"/>
	</g>
</g>
<path id="XMLID_23_" fill="none" d="M115.126,237h24v24h-24V237z"/>
<path id="XMLID_18_" fill="#434343" d="M118.126,245.917h5.333v-6.667h-5.333V245.917z M118.126,251.25h5.333v-4h-5.333V251.25z
	 M124.793,251.25h5.333v-6.667h-5.333V251.25z M124.793,239.25v4h5.333v-4H124.793z"/>
<g id="XMLID_24_">
	<rect id="XMLID_50_" x="134.126" y="242.25" fill="none" width="56.874" height="9"/>
	<path id="XMLID_26_" d="M135.201,250.629v-7.82h2.165c0.899,0,1.662,0.322,2.288,0.967s0.94,1.466,0.94,2.465v0.956
		c0,1.002-0.313,1.825-0.94,2.468c-0.626,0.643-1.389,0.964-2.288,0.964H135.201z M135.491,243.099v7.24h1.875
		c0.813,0,1.506-0.297,2.079-0.892s0.859-1.345,0.859-2.25v-0.972c0-0.895-0.287-1.64-0.859-2.234s-1.266-0.892-2.079-0.892H135.491
		z"/>
	<path id="XMLID_29_" d="M145.895,249.555c-0.201,0.351-0.5,0.637-0.897,0.856c-0.397,0.221-0.879,0.331-1.445,0.331
		c-0.541,0-0.965-0.148-1.273-0.443c-0.308-0.296-0.462-0.694-0.462-1.195c0-0.487,0.23-0.895,0.69-1.225
		c0.46-0.33,1.036-0.494,1.727-0.494h1.66v-0.849c0-0.483-0.155-0.86-0.464-1.131c-0.31-0.27-0.746-0.405-1.308-0.405
		c-0.526,0-0.95,0.127-1.27,0.381c-0.321,0.254-0.481,0.582-0.481,0.983l-0.242-0.011l-0.011-0.027
		c-0.021-0.451,0.154-0.833,0.526-1.147c0.373-0.313,0.865-0.47,1.477-0.47c0.623,0,1.123,0.158,1.499,0.473s0.564,0.77,0.564,1.364
		v2.911c0,0.204,0.012,0.403,0.035,0.596c0.023,0.193,0.062,0.385,0.116,0.575h-0.322c-0.046-0.254-0.078-0.445-0.094-0.572
		c-0.016-0.127-0.024-0.264-0.024-0.411V249.555z M143.553,250.457c0.577,0,1.064-0.127,1.463-0.381
		c0.399-0.254,0.692-0.618,0.878-1.09v-1.305h-1.644c-0.602,0-1.109,0.139-1.523,0.417c-0.413,0.277-0.62,0.62-0.62,1.028
		c0,0.39,0.132,0.71,0.395,0.959C142.766,250.333,143.116,250.457,143.553,250.457z"/>
	<path id="XMLID_32_" d="M151.615,249.206c0-0.308-0.131-0.588-0.395-0.84c-0.263-0.253-0.722-0.451-1.377-0.594
		c-0.691-0.147-1.191-0.336-1.501-0.566c-0.31-0.231-0.464-0.574-0.464-1.029c0-0.416,0.175-0.764,0.526-1.044
		c0.351-0.281,0.824-0.422,1.418-0.422c0.641,0,1.146,0.15,1.515,0.451s0.544,0.693,0.526,1.176l-0.011,0.032h-0.247
		c0-0.379-0.16-0.703-0.481-0.969c-0.32-0.267-0.754-0.4-1.302-0.4c-0.544,0-0.956,0.117-1.235,0.352
		c-0.279,0.235-0.419,0.506-0.419,0.814c0,0.304,0.118,0.564,0.354,0.779s0.706,0.403,1.407,0.564
		c0.648,0.15,1.14,0.355,1.474,0.615c0.335,0.26,0.502,0.623,0.502,1.088c0,0.455-0.186,0.824-0.559,1.106s-0.867,0.424-1.482,0.424
		c-0.677,0-1.208-0.151-1.592-0.454c-0.385-0.303-0.565-0.671-0.54-1.104l0.011-0.032h0.236c0.029,0.458,0.226,0.79,0.591,0.994
		s0.797,0.306,1.294,0.306c0.537,0,0.963-0.125,1.278-0.376S151.615,249.535,151.615,249.206z"/>
	<path id="XMLID_34_" d="M153.817,246.042c0.179-0.422,0.442-0.75,0.79-0.983s0.771-0.349,1.273-0.349
		c0.605,0,1.064,0.191,1.378,0.575c0.313,0.383,0.47,0.986,0.47,1.81v3.534h-0.295v-3.545c0-0.763-0.141-1.301-0.421-1.614
		c-0.281-0.313-0.656-0.47-1.125-0.47c-0.626,0-1.106,0.187-1.439,0.562c-0.333,0.374-0.542,0.853-0.628,1.437v3.631h-0.29v-8.379
		h0.29V246.042z"/>
	<path id="XMLID_36_" d="M163.99,247.831c0,0.895-0.193,1.604-0.58,2.127s-0.92,0.784-1.601,0.784c-0.458,0-0.857-0.092-1.198-0.277
		c-0.34-0.184-0.605-0.434-0.795-0.749l-0.038,0.913h-0.242v-8.379h0.29v3.604c0.193-0.354,0.457-0.634,0.79-0.838
		s0.727-0.306,1.182-0.306c0.684,0,1.22,0.271,1.609,0.813c0.388,0.543,0.583,1.274,0.583,2.194V247.831z M163.689,247.718
		c0-0.806-0.161-1.46-0.483-1.963c-0.322-0.503-0.79-0.755-1.402-0.755c-0.562,0-0.999,0.142-1.311,0.424s-0.534,0.63-0.666,1.042
		v2.723c0.143,0.383,0.383,0.689,0.72,0.918s0.759,0.344,1.268,0.344c0.612,0,1.078-0.236,1.396-0.709s0.478-1.11,0.478-1.912
		V247.718z"/>
	<path id="XMLID_39_" d="M165.112,247.61c0-0.852,0.235-1.549,0.707-2.089c0.471-0.541,1.082-0.811,1.834-0.811
		c0.755,0,1.369,0.271,1.84,0.811c0.471,0.541,0.706,1.237,0.706,2.089v0.226c0,0.856-0.235,1.554-0.706,2.095
		c-0.471,0.541-1.081,0.811-1.829,0.811c-0.755,0-1.37-0.271-1.842-0.811s-0.709-1.239-0.709-2.095V247.61z M165.402,247.836
		c0,0.73,0.204,1.349,0.612,1.855c0.408,0.507,0.958,0.76,1.649,0.76c0.68,0,1.225-0.254,1.633-0.763s0.612-1.126,0.612-1.853
		v-0.226c0-0.712-0.206-1.326-0.618-1.84c-0.412-0.514-0.958-0.771-1.638-0.771c-0.684,0-1.23,0.257-1.638,0.771
		c-0.408,0.514-0.612,1.127-0.612,1.84V247.836z"/>
	<path id="XMLID_42_" d="M175.237,249.555c-0.201,0.351-0.5,0.637-0.897,0.856c-0.397,0.221-0.879,0.331-1.445,0.331
		c-0.541,0-0.965-0.148-1.273-0.443c-0.308-0.296-0.462-0.694-0.462-1.195c0-0.487,0.23-0.895,0.69-1.225
		c0.46-0.33,1.036-0.494,1.727-0.494h1.66v-0.849c0-0.483-0.155-0.86-0.464-1.131c-0.31-0.27-0.746-0.405-1.308-0.405
		c-0.526,0-0.95,0.127-1.27,0.381c-0.321,0.254-0.481,0.582-0.481,0.983l-0.242-0.011l-0.011-0.027
		c-0.021-0.451,0.154-0.833,0.526-1.147c0.373-0.313,0.865-0.47,1.477-0.47c0.623,0,1.123,0.158,1.499,0.473s0.564,0.77,0.564,1.364
		v2.911c0,0.204,0.012,0.403,0.035,0.596c0.023,0.193,0.062,0.385,0.116,0.575h-0.322c-0.046-0.254-0.078-0.445-0.094-0.572
		c-0.016-0.127-0.024-0.264-0.024-0.411V249.555z M172.895,250.457c0.577,0,1.064-0.127,1.463-0.381
		c0.399-0.254,0.692-0.618,0.878-1.09v-1.305h-1.644c-0.602,0-1.109,0.139-1.523,0.417c-0.413,0.277-0.62,0.62-0.62,1.028
		c0,0.39,0.132,0.71,0.395,0.959C172.108,250.333,172.458,250.457,172.895,250.457z"/>
	<path id="XMLID_45_" d="M179.958,245.027l-0.376-0.032c-0.519,0-0.941,0.167-1.265,0.502c-0.324,0.334-0.534,0.776-0.631,1.324
		v3.808h-0.29v-5.812h0.236l0.054,1.01v0.199c0.161-0.416,0.401-0.739,0.72-0.969c0.319-0.231,0.711-0.347,1.176-0.347
		c0.083,0,0.159,0.006,0.228,0.019c0.07,0.013,0.13,0.026,0.18,0.041L179.958,245.027z"/>
	<path id="XMLID_47_" d="M180.678,247.718c0-0.92,0.193-1.651,0.58-2.194c0.387-0.542,0.924-0.813,1.611-0.813
		c0.455,0,0.848,0.102,1.179,0.306c0.332,0.204,0.596,0.483,0.792,0.838v-3.604h0.29v8.379h-0.279l-0.011-0.902
		c-0.193,0.312-0.459,0.559-0.797,0.741c-0.339,0.183-0.733,0.274-1.185,0.274c-0.684,0-1.218-0.261-1.604-0.784
		c-0.385-0.523-0.577-1.232-0.577-2.127V247.718z M180.979,247.831c0,0.802,0.158,1.439,0.476,1.912
		c0.316,0.473,0.783,0.709,1.399,0.709c0.505,0,0.925-0.115,1.259-0.344c0.335-0.229,0.578-0.535,0.728-0.918v-2.723
		c-0.14-0.416-0.365-0.764-0.677-1.044c-0.312-0.281-0.745-0.422-1.3-0.422c-0.616,0-1.084,0.251-1.405,0.755
		c-0.32,0.503-0.48,1.157-0.48,1.963V247.831z"/>
</g>
<g id="XMLID_17_">
</g>
<g id="XMLID_25_">
</g>
<g id="XMLID_51_">
</g>
<g id="XMLID_52_">
</g>
<g id="XMLID_53_">
</g>
<g id="XMLID_54_">
</g>
</svg>
