<?xml version="1.0" encoding="utf-8"?>
<!-- Generator: Adobe Illustrator 19.0.0, SVG Export Plug-In . SVG Version: 6.00 Build 0)  -->
<svg version="1.1" id="Layer_1" xmlns="http://www.w3.org/2000/svg" xmlns:xlink="http://www.w3.org/1999/xlink" x="0px" y="0px"
	 viewBox="0 0 600 600" enable-background="new 0 0 600 600" xml:space="preserve">
<g>
	<g>
		<path id="XMLID_27_" fill="#E5E5E5" d="M42.653,482.676c-0.238,1.531-0.362,3.101-0.362,4.698
			c-0.002,16.765,13.591,30.356,30.355,30.356c6.513,0.001,12.542-2.056,17.485-5.547c6.127,5.15,14.027,8.253,22.658,8.255
			c18.466-0.002,33.605-14.2,35.115-32.277c6.408,8.812,16.794,14.549,28.523,14.547c10.019,0,19.053-4.185,25.471-10.895
			c4.827,6.204,11.679,10.747,19.566,12.641c-0.112,1.14-0.171,2.292-0.171,3.463c0,19.469,15.783,35.249,35.25,35.249
			c14.046-0.001,26.172-8.218,31.836-20.106c6.027,2.974,12.809,4.651,19.983,4.651c24.98,0,45.229-20.249,45.229-45.228
			c0-17.39-9.818-32.475-24.208-40.045c-6.159-8.332-15.025-14.535-25.295-17.328c-4.516-21.085-23.25-36.896-45.684-36.897
			c-7.158,0-13.936,1.616-19.999,4.491c-7.649-15.375-23.513-25.947-41.854-25.947c-17.483,0.001-32.715,9.608-40.726,23.829
			c-2.506-0.567-5.109-0.874-7.785-0.874c-16.531,0-30.399,11.38-34.209,26.733c-8.915,2.923-16.259,9.3-20.452,17.557
			c-6.244-5.618-14.504-9.039-23.565-9.041c-19.467,0.001-35.25,15.782-35.25,35.249C34.563,468.747,37.601,476.576,42.653,482.676z
			"/>
		<path id="XMLID_26_" fill="#CBCBCB" d="M257.659,434.064c-0.238-1.531-0.362-3.101-0.363-4.699
			c0-16.765,13.592-30.355,30.357-30.355c6.512-0.001,12.54,2.056,17.484,5.547c6.126-5.149,14.028-8.253,22.657-8.255
			c18.467,0.002,33.606,14.2,35.115,32.277c6.408-8.812,16.793-14.548,28.524-14.548c10.018,0,19.053,4.186,25.47,10.896
			c4.829-6.204,11.68-10.747,19.568-12.641c-0.112-1.14-0.172-2.292-0.172-3.462c0-19.469,15.783-35.25,35.249-35.25
			c14.046,0.002,26.171,8.218,31.836,20.107c6.027-2.974,12.809-4.65,19.984-4.65c24.979,0,45.227,20.249,45.229,45.227
			c0,17.39-9.818,32.476-24.208,40.046c-6.161,8.333-15.026,14.535-25.297,17.328c-4.514,21.085-23.249,36.896-45.683,36.897
			c-7.158,0-13.937-1.616-20.001-4.491c-7.649,15.374-23.511,25.947-41.852,25.947c-17.483-0.001-32.716-9.608-40.726-23.829
			c-2.506,0.567-5.109,0.873-7.786,0.873c-16.53,0-30.398-11.38-34.208-26.732c-8.914-2.924-16.258-9.301-20.452-17.557
			c-6.245,5.617-14.505,9.039-23.567,9.041c-19.467-0.002-35.248-15.783-35.248-35.249
			C249.568,447.993,252.608,440.164,257.659,434.064z"/>
		<path id="XMLID_25_" fill="#B3B3B3" d="M436.412,459.973c0.238-1.531,0.363-3.099,0.363-4.697
			c0-16.766-13.592-30.357-30.357-30.357c-6.512,0-12.541,2.057-17.483,5.547c-6.128-5.148-14.029-8.253-22.658-8.253
			c-18.467,0-33.605,14.2-35.116,32.277c-4.263-5.863-10.29-10.35-17.298-12.707V258.214h-30.726v187.63
			c-2.169,1.445-4.174,3.116-5.969,4.992c-4.829-6.203-11.679-10.746-19.568-12.641c0.112-1.139,0.172-2.292,0.172-3.461
			c0-19.469-15.781-35.25-35.248-35.25c-14.048,0-26.172,8.218-31.837,20.106c-6.026-2.974-12.807-4.651-19.983-4.651
			c-24.98,0-45.229,20.249-45.229,45.229c0,17.388,9.818,32.476,24.208,40.044c6.161,8.333,15.025,14.535,25.297,17.33
			c4.516,21.085,23.248,36.896,45.683,36.896c7.158,0,13.936-1.615,20-4.491c7.649,15.376,23.512,25.947,41.852,25.947
			c17.483,0,32.715-9.608,40.727-23.827c2.505,0.566,5.109,0.873,7.785,0.873c16.529,0,30.398-11.381,34.207-26.733
			c8.915-2.923,16.259-9.301,20.452-17.556c6.245,5.618,14.505,9.04,23.566,9.04c19.467,0,35.249-15.782,35.249-35.248
			C444.502,473.902,441.464,466.074,436.412,459.973z"/>
	</g>
	<g id="XMLID_29_">
		<g id="XMLID_53_">
			<path id="XMLID_24_" fill="#FAAF3C" d="M316.886,274.03H298.5h-18.387c0,0-14.857,11.995-7.554,40.542
				c0,0,4.282-12.237,10.578-9.358c0,0-0.757,37.906,15.363,53.261c16.118-15.355,15.363-53.261,15.363-53.261
				c6.295-2.879,10.577,9.358,10.577,9.358C331.745,286.025,316.886,274.03,316.886,274.03z"/>
			<path id="XMLID_23_" fill="#FAED22" d="M312.969,274.03H298.5h-14.469c0,0-15.205,9.44-9.459,31.902c0,0,6.883-9.63,11.837-7.361
				c0,0-0.595,29.829,12.09,41.912c12.684-12.082,12.09-41.912,12.09-41.912c4.955-2.269,12.088,7.361,12.088,7.361
				C328.425,283.469,312.969,274.03,312.969,274.03z"/>
			<path id="XMLID_22_" fill="#F2F2F2" d="M307.735,274.03h-9.192h-9.195c0,0-9.659,5.997-6.008,20.27c0,0,4.373-6.117,7.52-4.678
				c0,0-0.377,18.953,7.683,26.629c8.06-7.676,7.681-26.629,7.681-26.629c3.147-1.439,7.681,4.678,7.681,4.678
				C317.557,280.027,307.735,274.03,307.735,274.03z"/>
		</g>
		<g id="XMLID_43_">
			<rect id="XMLID_21_" x="277.993" y="264.786" fill="#818181" width="41.013" height="9.244"/>
			<path id="XMLID_20_" fill="#0E4D88" d="M264.352,223.815c0,0-12.538,0.592-17.135-8.603c0,0-24.956,40.938-4.16,87.569
				c0,0,8.101-40.939,30.65-51.447L264.352,223.815z"/>
			<path id="XMLID_19_" fill="#004669" d="M332.684,223.815c0,0,12.538,0.592,17.135-8.603c0,0,24.957,40.938,4.159,87.569
				c0,0-8.1-40.939-30.649-51.447L332.684,223.815z"/>
			<path id="XMLID_18_" fill="#FBB03C" d="M319.043,264.786c9.959-19.905,16.523-40.908,16.523-79.482
				c0-61.33-37.047-111.048-37.047-111.048s-37.048,49.718-37.048,111.048c0,38.573,6.565,59.577,16.523,79.482H319.043z"/>
			<path id="XMLID_17_" fill="#004669" d="M273.563,255.261c1.385,3.245,2.865,6.399,4.43,9.525h41.05
				c1.565-3.127,3.045-6.28,4.43-9.525H273.563z"/>
			<path id="XMLID_16_" fill="#F0504D" d="M322.938,120.829c-10.736-28.183-24.419-46.573-24.419-46.573
				s-13.684,18.391-24.419,46.573H322.938z"/>
			<path id="XMLID_15_" fill="#004669" d="M294.397,258.998c0,24.178,4.121,43.783,4.121,43.783s4.12-19.606,4.12-43.783
				c0-24.184-1.845-43.785-4.12-43.785C296.242,215.212,294.397,234.814,294.397,258.998z"/>
			<circle id="XMLID_14_" fill="#EF4747" cx="298.518" cy="158.407" r="17.465"/>
			<circle id="XMLID_13_" fill="#00579B" cx="298.518" cy="158.407" r="12.885"/>
		</g>
		<g id="XMLID_30_">
			<path id="XMLID_12_" fill="#818181" d="M302.135,274.03h16.871v-9.244h-16.448C302.474,267.989,302.328,271.083,302.135,274.03z"
				/>
			<path id="XMLID_11_" fill="#0D4D88" d="M349.819,215.212c-4.597,9.194-17.135,8.603-17.135,8.603l-0.004,0.012
				c-1.863,10.816-4.562,19.893-7.899,28.257c21.44,11.547,29.197,50.696,29.197,50.696
				C374.776,256.15,349.819,215.212,349.819,215.212z"/>
			<path id="XMLID_10_" fill="#FCFDF3" d="M298.868,74.739c0.054,0.076,0.121,0.169,0.188,0.263
				C298.986,74.905,298.924,74.816,298.868,74.739z"/>
			<path id="XMLID_9_" fill="#FCFDF3" d="M298.575,74.332c0.019,0.027,0.046,0.066,0.079,0.109
				C298.609,74.381,298.594,74.361,298.575,74.332z"/>
			<path id="XMLID_8_" fill="#FBB03C" d="M335.565,185.304c0-54.396-29.123-99.625-35.714-109.165
				c3.694,5.36,14.364,21.792,23.086,44.691h-24.419v20.112c9.645,0,17.465,7.819,17.465,17.466c0,9.645-7.82,17.464-17.465,17.464
				v39.341c2.157,0,3.925,17.616,4.103,40.048h20.851c0.446-1.049,0.88-2.109,1.308-3.176c3.337-8.365,6.036-17.441,7.899-28.257
				C334.537,213.053,335.565,200.555,335.565,185.304z"/>
			<path id="XMLID_7_" fill="#FCFDF3" d="M321.229,260.264c-0.71,1.518-1.437,3.023-2.186,4.523
				C319.792,263.289,320.519,261.782,321.229,260.264z"/>
			<path id="XMLID_6_" fill="#FCFDF3" d="M299.207,75.215c0.183,0.259,0.395,0.561,0.644,0.921
				C299.602,75.777,299.388,75.471,299.207,75.215z"/>
			<path id="XMLID_5_" fill="#FCFDF3" d="M323.467,255.272c-0.666,1.559-1.355,3.095-2.064,4.622
				C322.112,258.367,322.802,256.831,323.467,255.272z"/>
			<path id="XMLID_4_" fill="#F0504D" d="M299.852,76.139c0,0-0.002-0.001-0.002-0.003c-0.249-0.36-0.461-0.663-0.644-0.921
				c-0.054-0.076-0.103-0.147-0.15-0.213c-0.067-0.094-0.134-0.186-0.188-0.263c-0.09-0.127-0.159-0.22-0.215-0.298
				c-0.033-0.043-0.06-0.082-0.079-0.109c-0.034-0.046-0.056-0.076-0.056-0.076v46.573h24.419
				C314.215,97.931,303.546,81.499,299.852,76.139z"/>
			<path id="XMLID_3_" fill="#004669" d="M298.519,215.212v40.048v9.525v9.244v28.751c0,0,2.517-11.976,3.617-28.751
				c0.193-2.947,0.338-6.041,0.423-9.244h16.448h0.037c0.749-1.5,1.476-3.004,2.186-4.523c0.058-0.122,0.116-0.245,0.174-0.37
				c0.709-1.526,1.398-3.063,2.064-4.622c0.001-0.006,0.004-0.008,0.005-0.011l0,0h-20.851
				C302.444,232.829,300.675,215.212,298.519,215.212z"/>
			<path id="XMLID_2_" fill="#EF4747" d="M315.983,158.407c0-9.646-7.82-17.466-17.465-17.466v4.579
				c7.116,0,12.884,5.769,12.884,12.886c0,7.116-5.768,12.885-12.884,12.885v4.579C308.163,175.871,315.983,168.052,315.983,158.407
				z"/>
			<path id="XMLID_1_" fill="#02546F" d="M311.403,158.407c0-7.117-5.768-12.886-12.884-12.886v25.771
				C305.634,171.292,311.403,165.523,311.403,158.407z"/>
		</g>
	</g>
</g>
<g id="XMLID_28_">
</g>
<g id="XMLID_31_">
</g>
<g id="XMLID_32_">
</g>
<g id="XMLID_33_">
</g>
<g id="XMLID_34_">
</g>
<g id="XMLID_35_">
</g>
</svg>
