<?xml version="1.0" encoding="utf-8"?>
<!-- Generator: Adobe Illustrator 19.0.0, SVG Export Plug-In . SVG Version: 6.00 Build 0)  -->
<svg version="1.1" id="Layer_1" xmlns="http://www.w3.org/2000/svg" xmlns:xlink="http://www.w3.org/1999/xlink" x="0px" y="0px"
	 viewBox="0 0 500 500" enable-background="new 0 0 500 500" xml:space="preserve">
<path id="XMLID_1_" fill="#FBB03C" d="M457.37,294.004H141.455c-4.591,0-8.312-3.721-8.312-8.312V155.588
	c0-4.591,3.722-8.312,8.312-8.312H457.37c4.591,0,8.312,3.722,8.312,8.312v130.104C465.682,290.283,461.961,294.004,457.37,294.004z
	"/>
<rect id="XMLID_2_" x="119.314" y="164.122" transform="matrix(0.7071 0.7071 -0.7071 0.7071 164.8265 -42.0255)" fill="#FBB03C" width="27.657" height="27.657"/>
<g id="XMLID_3_">
	<rect id="XMLID_153_" x="148.222" y="172.768" fill="none" width="223.81" height="26.984"/>
	<path id="XMLID_138_" fill="#FFFFFF" d="M152.088,182.782v5.988h-2.02v-14.93h5.711c1.593,0,2.83,0.41,3.712,1.23
		s1.323,1.9,1.323,3.24c0,1.36-0.441,2.445-1.323,3.256c-0.882,0.81-2.119,1.215-3.712,1.215H152.088z M152.088,181.192h3.691
		c1.012,0,1.767-0.271,2.266-0.814s0.749-1.226,0.749-2.052s-0.251-1.515-0.753-2.068c-0.503-0.553-1.256-0.829-2.261-0.829h-3.691
		V181.192z"/>
	<path id="XMLID_141_" fill="#FFFFFF" d="M167.612,188.985c-1.545,0-2.773-0.514-3.687-1.543c-0.912-1.028-1.369-2.363-1.369-4.004
		v-0.451c0-1.579,0.47-2.893,1.41-3.942s2.053-1.574,3.338-1.574c1.497,0,2.628,0.451,3.394,1.354s1.148,2.105,1.148,3.609v1.261
		h-7.198l-0.031,0.051c0.021,1.063,0.291,1.938,0.81,2.623s1.248,1.028,2.184,1.028c0.684,0,1.283-0.098,1.8-0.292
		c0.516-0.195,0.962-0.463,1.338-0.805l0.79,1.314c-0.396,0.392-0.919,0.719-1.569,0.98
		C169.321,188.854,168.535,188.985,167.612,188.985z M167.305,179.06c-0.677,0-1.254,0.285-1.733,0.854s-0.772,1.282-0.882,2.141
		l0.021,0.051h5.117v-0.266c0-0.791-0.212-1.451-0.636-1.983C168.768,179.325,168.139,179.06,167.305,179.06z"/>
	<path id="XMLID_144_" fill="#FFFFFF" d="M179.363,179.459l-1.036-0.062c-0.533,0-0.983,0.126-1.349,0.379s-0.647,0.608-0.846,1.066
		v7.926h-2.02v-11.095h1.805l0.195,1.62c0.314-0.574,0.702-1.022,1.164-1.343c0.461-0.321,0.993-0.482,1.594-0.482
		c0.15,0,0.294,0.012,0.431,0.036s0.25,0.049,0.338,0.077L179.363,179.459z"/>
	<path id="XMLID_146_" fill="#FFFFFF" d="M182.306,188.77v-9.598h-1.733v-1.497h1.733v-1.405c0-1.183,0.309-2.097,0.928-2.743
		c0.618-0.646,1.481-0.969,2.589-0.969c0.232,0,0.467,0.019,0.702,0.056c0.236,0.038,0.498,0.091,0.785,0.159l-0.246,1.538
		c-0.123-0.027-0.272-0.051-0.446-0.072c-0.175-0.021-0.357-0.031-0.549-0.031c-0.588,0-1.025,0.176-1.312,0.528
		s-0.431,0.863-0.431,1.533v1.405h2.307v1.497h-2.307v9.598H182.306z"/>
	<path id="XMLID_148_" fill="#FFFFFF" d="M190.899,174.835h-2.02v-2.061h2.02V174.835z M190.899,188.77h-2.02v-11.095h2.02V188.77z"
		/>
	<path id="XMLID_151_" fill="#FFFFFF" d="M196.19,188.77h-2.02v-15.996h2.02V188.77z"/>
</g>
<g id="XMLID_5_">
	<path id="XMLID_11_" fill="#FFFFFF" d="M156.196,222.913h-5.871l-1.336,3.823h-0.487l4.486-12.797h0.544l4.495,12.797h-0.487
		L156.196,222.913z M150.489,222.438h5.542l-2.515-7.207l-0.231-0.721h-0.05l-0.223,0.721L150.489,222.438z"/>
	<path id="XMLID_15_" fill="#FFFFFF" d="M166.545,222.157c0,1.465-0.297,2.625-0.891,3.48s-1.413,1.283-2.458,1.283
		c-0.698,0-1.307-0.149-1.827-0.448s-0.925-0.703-1.216-1.213v5.133h-0.445v-13.166h0.346l0.091,1.705
		c0.297-0.586,0.701-1.046,1.212-1.38s1.119-0.501,1.822-0.501c1.05,0,1.874,0.444,2.47,1.332c0.597,0.888,0.895,2.084,0.895,3.59
		V222.157z M166.092,221.973c0-1.318-0.249-2.389-0.747-3.212s-1.216-1.235-2.156-1.235c-0.863,0-1.534,0.231-2.012,0.694
		c-0.478,0.463-0.819,1.031-1.022,1.705v4.447c0.22,0.633,0.588,1.137,1.105,1.512s1.166,0.562,1.946,0.562
		c0.94,0,1.656-0.387,2.148-1.16c0.492-0.773,0.738-1.816,0.738-3.129V221.973z"/>
	<path id="XMLID_18_" fill="#FFFFFF" d="M172.903,217.569l-0.577-0.053c-0.797,0-1.445,0.274-1.942,0.822s-0.82,1.27-0.969,2.167
		v6.231h-0.445v-9.51h0.363l0.083,1.652v0.325c0.248-0.68,0.616-1.208,1.105-1.586s1.091-0.567,1.806-0.567
		c0.126,0,0.243,0.01,0.35,0.031c0.107,0.021,0.199,0.042,0.276,0.066L172.903,217.569z"/>
	<path id="XMLID_20_" fill="#FFFFFF" d="M173.711,221.797c0-1.395,0.362-2.534,1.084-3.419c0.723-0.885,1.662-1.327,2.816-1.327
		c1.16,0,2.101,0.442,2.824,1.327c0.723,0.885,1.084,2.024,1.084,3.419v0.369c0,1.4-0.362,2.543-1.084,3.428
		c-0.723,0.885-1.659,1.327-2.808,1.327c-1.16,0-2.103-0.442-2.828-1.327c-0.726-0.885-1.089-2.027-1.089-3.428V221.797z
		 M174.157,222.166c0,1.195,0.313,2.208,0.94,3.037c0.626,0.829,1.47,1.244,2.531,1.244c1.044,0,1.88-0.416,2.507-1.248
		c0.626-0.832,0.94-1.843,0.94-3.032v-0.369c0-1.166-0.316-2.169-0.948-3.01c-0.632-0.841-1.471-1.261-2.515-1.261
		c-1.05,0-1.889,0.42-2.515,1.261c-0.627,0.841-0.94,1.844-0.94,3.01V222.166z"/>
	<path id="XMLID_23_" fill="#FFFFFF" d="M185.702,224.724l0.42,1.283h0.049l0.429-1.283l2.746-7.497h0.479l-3.472,9.501l0.008,0.009
		h-0.429l-3.463-9.51h0.479L185.702,224.724z"/>
	<path id="XMLID_25_" fill="#FFFFFF" d="M194.534,226.921c-1.017,0-1.896-0.438-2.635-1.314c-0.74-0.876-1.109-1.964-1.109-3.265
		v-0.562c0-1.365,0.357-2.495,1.072-3.388c0.714-0.894,1.597-1.34,2.647-1.34c1.006,0,1.827,0.352,2.461,1.055
		c0.635,0.703,0.953,1.646,0.953,2.83v0.729h-6.688v0.114v0.562c0,1.148,0.316,2.12,0.949,2.914c0.632,0.794,1.416,1.191,2.35,1.191
		c0.665,0,1.222-0.097,1.67-0.29c0.448-0.193,0.832-0.483,1.15-0.87l0.239,0.369c-0.352,0.416-0.779,0.731-1.282,0.945
		S195.215,226.921,194.534,226.921z M194.509,217.525c-0.885,0-1.622,0.344-2.21,1.033s-0.921,1.548-0.998,2.58l0.025,0.053h6.152
		v-0.29c0-0.967-0.275-1.771-0.825-2.413S195.388,217.525,194.509,217.525z"/>
	<path id="XMLID_28_" fill="#FFFFFF" d="M200.553,214.238h-0.445v-1.213h0.445V214.238z M200.553,226.736h-0.445v-9.51h0.445
		V226.736z"/>
	<path id="XMLID_31_" fill="#FFFFFF" d="M204.404,214.66v2.566h2.194v0.483h-2.194v6.574c0,0.779,0.124,1.334,0.371,1.666
		c0.248,0.331,0.575,0.497,0.981,0.497c0.148,0,0.28-0.006,0.396-0.018c0.115-0.012,0.275-0.032,0.478-0.062l0.083,0.431
		c-0.137,0.047-0.28,0.079-0.429,0.097s-0.316,0.026-0.503,0.026c-0.6,0-1.054-0.208-1.365-0.624
		c-0.311-0.416-0.466-1.087-0.466-2.013v-6.574h-1.649v-0.483h1.649v-2.566H204.404z"/>
	<path id="XMLID_33_" fill="#FFFFFF" d="M211.744,226.921c-1.017,0-1.896-0.438-2.635-1.314c-0.74-0.876-1.109-1.964-1.109-3.265
		v-0.562c0-1.365,0.357-2.495,1.072-3.388c0.714-0.894,1.597-1.34,2.647-1.34c1.006,0,1.827,0.352,2.461,1.055
		c0.635,0.703,0.953,1.646,0.953,2.83v0.729h-6.688v0.114v0.562c0,1.148,0.316,2.12,0.949,2.914c0.632,0.794,1.416,1.191,2.35,1.191
		c0.665,0,1.222-0.097,1.67-0.29c0.448-0.193,0.832-0.483,1.15-0.87l0.239,0.369c-0.352,0.416-0.779,0.731-1.282,0.945
		S212.426,226.921,211.744,226.921z M211.719,217.525c-0.885,0-1.622,0.344-2.21,1.033s-0.921,1.548-0.998,2.58l0.025,0.053h6.152
		v-0.29c0-0.967-0.275-1.771-0.825-2.413S212.599,217.525,211.719,217.525z"/>
	<path id="XMLID_36_" fill="#FFFFFF" d="M228.072,222.157c0,1.465-0.297,2.625-0.891,3.48s-1.413,1.283-2.458,1.283
		c-0.698,0-1.307-0.149-1.827-0.448s-0.925-0.703-1.216-1.213v5.133h-0.445v-13.166h0.346l0.091,1.705
		c0.297-0.586,0.701-1.046,1.212-1.38s1.119-0.501,1.822-0.501c1.05,0,1.874,0.444,2.47,1.332c0.597,0.888,0.895,2.084,0.895,3.59
		V222.157z M227.618,221.973c0-1.318-0.249-2.389-0.747-3.212s-1.216-1.235-2.156-1.235c-0.863,0-1.534,0.231-2.012,0.694
		c-0.478,0.463-0.819,1.031-1.022,1.705v4.447c0.22,0.633,0.588,1.137,1.105,1.512s1.166,0.562,1.946,0.562
		c0.94,0,1.656-0.387,2.148-1.16c0.492-0.773,0.738-1.816,0.738-3.129V221.973z"/>
	<path id="XMLID_39_" fill="#FFFFFF" d="M236.096,224.979c-0.308,0.574-0.767,1.042-1.377,1.402s-1.35,0.541-2.218,0.541
		c-0.83,0-1.482-0.242-1.955-0.725s-0.709-1.135-0.709-1.956c0-0.797,0.353-1.465,1.06-2.004s1.59-0.809,2.651-0.809h2.548v-1.389
		c0-0.791-0.238-1.408-0.713-1.85s-1.145-0.664-2.008-0.664c-0.808,0-1.458,0.208-1.95,0.624c-0.492,0.416-0.738,0.952-0.738,1.608
		l-0.371-0.018l-0.016-0.044c-0.033-0.738,0.236-1.364,0.808-1.876c0.571-0.513,1.328-0.769,2.268-0.769
		c0.957,0,1.724,0.258,2.301,0.773s0.866,1.26,0.866,2.232v4.764c0,0.334,0.018,0.659,0.054,0.976s0.095,0.63,0.177,0.94h-0.495
		c-0.072-0.416-0.12-0.728-0.145-0.936c-0.024-0.208-0.037-0.432-0.037-0.672V224.979z M232.5,226.455
		c0.885,0,1.634-0.208,2.247-0.624c0.613-0.416,1.062-1.011,1.348-1.784v-2.136h-2.523c-0.923,0-1.703,0.227-2.338,0.681
		c-0.635,0.454-0.952,1.015-0.952,1.683c0,0.639,0.202,1.162,0.606,1.569C231.292,226.251,231.83,226.455,232.5,226.455z"/>
	<path id="XMLID_42_" fill="#FFFFFF" d="M243.344,217.569l-0.577-0.053c-0.797,0-1.445,0.274-1.942,0.822s-0.82,1.27-0.969,2.167
		v6.231h-0.445v-9.51h0.363l0.083,1.652v0.325c0.248-0.68,0.616-1.208,1.105-1.586s1.091-0.567,1.806-0.567
		c0.126,0,0.243,0.01,0.35,0.031c0.107,0.021,0.199,0.042,0.276,0.066L243.344,217.569z"/>
	<path id="XMLID_44_" fill="#FFFFFF" d="M250.617,224.979c-0.308,0.574-0.767,1.042-1.377,1.402s-1.35,0.541-2.218,0.541
		c-0.83,0-1.482-0.242-1.955-0.725s-0.709-1.135-0.709-1.956c0-0.797,0.353-1.465,1.06-2.004s1.59-0.809,2.651-0.809h2.548v-1.389
		c0-0.791-0.238-1.408-0.713-1.85s-1.145-0.664-2.008-0.664c-0.808,0-1.458,0.208-1.95,0.624c-0.492,0.416-0.738,0.952-0.738,1.608
		l-0.371-0.018l-0.016-0.044c-0.033-0.738,0.236-1.364,0.808-1.876c0.571-0.513,1.328-0.769,2.268-0.769
		c0.957,0,1.724,0.258,2.301,0.773s0.866,1.26,0.866,2.232v4.764c0,0.334,0.018,0.659,0.054,0.976
		c0.035,0.316,0.095,0.63,0.177,0.94h-0.494c-0.072-0.416-0.12-0.728-0.145-0.936c-0.024-0.208-0.037-0.432-0.037-0.672V224.979z
		 M247.022,226.455c0.885,0,1.634-0.208,2.247-0.624c0.613-0.416,1.062-1.011,1.348-1.784v-2.136h-2.523
		c-0.923,0-1.703,0.227-2.338,0.681c-0.635,0.454-0.952,1.015-0.952,1.683c0,0.639,0.202,1.162,0.606,1.569
		C245.814,226.251,246.351,226.455,247.022,226.455z"/>
	<path id="XMLID_47_" fill="#FFFFFF" d="M263.572,224.979c-0.308,0.574-0.767,1.042-1.377,1.402s-1.35,0.541-2.218,0.541
		c-0.83,0-1.482-0.242-1.955-0.725s-0.709-1.135-0.709-1.956c0-0.797,0.354-1.465,1.06-2.004c0.707-0.539,1.591-0.809,2.651-0.809
		h2.548v-1.389c0-0.791-0.237-1.408-0.713-1.85s-1.145-0.664-2.008-0.664c-0.809,0-1.459,0.208-1.95,0.624
		c-0.492,0.416-0.738,0.952-0.738,1.608l-0.371-0.018l-0.017-0.044c-0.033-0.738,0.236-1.364,0.809-1.876
		c0.571-0.513,1.327-0.769,2.268-0.769c0.956,0,1.724,0.258,2.301,0.773s0.865,1.26,0.865,2.232v4.764
		c0,0.334,0.019,0.659,0.054,0.976c0.036,0.316,0.095,0.63,0.178,0.94h-0.495c-0.071-0.416-0.119-0.728-0.145-0.936
		c-0.024-0.208-0.037-0.432-0.037-0.672V224.979z M259.978,226.455c0.885,0,1.634-0.208,2.247-0.624
		c0.612-0.416,1.062-1.011,1.348-1.784v-2.136h-2.523c-0.923,0-1.702,0.227-2.338,0.681c-0.635,0.454-0.952,1.015-0.952,1.683
		c0,0.639,0.202,1.162,0.606,1.569S259.307,226.455,259.978,226.455z"/>
	<path id="XMLID_50_" fill="#FFFFFF" d="M269.914,226.446c0.753,0,1.418-0.22,1.995-0.659s0.866-1.099,0.866-1.978h0.379
		l0.017,0.053c0.022,0.932-0.298,1.674-0.961,2.228c-0.662,0.554-1.428,0.831-2.296,0.831c-1.139,0-2.03-0.437-2.676-1.31
		c-0.646-0.873-0.97-2.021-0.97-3.445v-0.369c0-1.418,0.322-2.563,0.965-3.437c0.644-0.873,1.531-1.31,2.664-1.31
		c0.924,0,1.705,0.289,2.346,0.866s0.95,1.39,0.928,2.439l-0.017,0.053h-0.379c0-0.932-0.28-1.645-0.841-2.14
		c-0.562-0.495-1.24-0.743-2.037-0.743c-1.045,0-1.836,0.398-2.375,1.195s-0.809,1.822-0.809,3.076v0.369
		c0,1.266,0.27,2.295,0.809,3.089S268.858,226.446,269.914,226.446z"/>
	<path id="XMLID_52_" fill="#FFFFFF" d="M278.499,226.921c-1.018,0-1.896-0.438-2.635-1.314c-0.74-0.876-1.109-1.964-1.109-3.265
		v-0.562c0-1.365,0.357-2.495,1.072-3.388c0.714-0.894,1.597-1.34,2.646-1.34c1.007,0,1.827,0.352,2.462,1.055
		s0.952,1.646,0.952,2.83v0.729H275.2v0.114v0.562c0,1.148,0.316,2.12,0.948,2.914s1.416,1.191,2.351,1.191
		c0.665,0,1.222-0.097,1.67-0.29c0.447-0.193,0.831-0.483,1.15-0.87l0.238,0.369c-0.352,0.416-0.779,0.731-1.282,0.945
		S279.181,226.921,278.499,226.921z M278.474,217.525c-0.885,0-1.621,0.344-2.21,1.033c-0.588,0.688-0.921,1.548-0.998,2.58
		l0.025,0.053h6.151v-0.29c0-0.967-0.274-1.771-0.824-2.413S279.354,217.525,278.474,217.525z"/>
	<path id="XMLID_55_" fill="#FFFFFF" d="M289.434,224.407c0-0.504-0.202-0.962-0.606-1.375s-1.109-0.737-2.115-0.971
		c-1.061-0.24-1.829-0.549-2.305-0.927s-0.713-0.939-0.713-1.683c0-0.68,0.269-1.25,0.808-1.709s1.265-0.69,2.177-0.69
		c0.984,0,1.76,0.246,2.326,0.738c0.565,0.492,0.835,1.134,0.808,1.925l-0.017,0.053h-0.379c0-0.621-0.246-1.15-0.738-1.586
		s-1.158-0.655-2-0.655c-0.835,0-1.468,0.192-1.896,0.576s-0.643,0.828-0.643,1.332c0,0.498,0.181,0.923,0.544,1.274
		c0.362,0.352,1.083,0.659,2.16,0.923c0.995,0.246,1.75,0.582,2.264,1.006c0.515,0.425,0.771,1.018,0.771,1.78
		c0,0.744-0.286,1.348-0.857,1.811c-0.572,0.463-1.331,0.694-2.276,0.694c-1.039,0-1.854-0.248-2.445-0.743
		s-0.867-1.097-0.828-1.806l0.016-0.053h0.363c0.044,0.75,0.347,1.292,0.907,1.626s1.223,0.501,1.987,0.501
		c0.824,0,1.479-0.205,1.963-0.615C289.191,225.421,289.434,224.946,289.434,224.407z"/>
	<path id="XMLID_57_" fill="#FFFFFF" d="M297.836,224.407c0-0.504-0.202-0.962-0.605-1.375c-0.404-0.413-1.109-0.737-2.115-0.971
		c-1.062-0.24-1.83-0.549-2.306-0.927s-0.713-0.939-0.713-1.683c0-0.68,0.27-1.25,0.809-1.709c0.538-0.46,1.264-0.69,2.177-0.69
		c0.984,0,1.759,0.246,2.325,0.738s0.836,1.134,0.809,1.925l-0.017,0.053h-0.38c0-0.621-0.246-1.15-0.737-1.586
		c-0.492-0.437-1.159-0.655-2-0.655c-0.836,0-1.468,0.192-1.896,0.576s-0.644,0.828-0.644,1.332c0,0.498,0.182,0.923,0.544,1.274
		c0.363,0.352,1.083,0.659,2.161,0.923c0.995,0.246,1.749,0.582,2.264,1.006c0.514,0.425,0.771,1.018,0.771,1.78
		c0,0.744-0.286,1.348-0.857,1.811c-0.572,0.463-1.33,0.694-2.276,0.694c-1.039,0-1.854-0.248-2.444-0.743
		c-0.592-0.495-0.867-1.097-0.829-1.806l0.017-0.053h0.362c0.044,0.75,0.347,1.292,0.907,1.626c0.562,0.334,1.224,0.501,1.987,0.501
		c0.825,0,1.479-0.205,1.963-0.615S297.836,224.946,297.836,224.407z"/>
	<path id="XMLID_59_" fill="#FFFFFF" d="M306.371,224.979c-0.308,0.574-0.767,1.042-1.377,1.402s-1.35,0.541-2.218,0.541
		c-0.83,0-1.482-0.242-1.955-0.725s-0.709-1.135-0.709-1.956c0-0.797,0.354-1.465,1.06-2.004c0.707-0.539,1.591-0.809,2.651-0.809
		h2.548v-1.389c0-0.791-0.237-1.408-0.713-1.85s-1.145-0.664-2.008-0.664c-0.809,0-1.459,0.208-1.95,0.624
		c-0.492,0.416-0.738,0.952-0.738,1.608l-0.371-0.018l-0.017-0.044c-0.033-0.738,0.236-1.364,0.809-1.876
		c0.571-0.513,1.327-0.769,2.268-0.769c0.956,0,1.724,0.258,2.301,0.773s0.865,1.26,0.865,2.232v4.764
		c0,0.334,0.019,0.659,0.054,0.976c0.036,0.316,0.095,0.63,0.178,0.94h-0.495c-0.071-0.416-0.119-0.728-0.145-0.936
		c-0.024-0.208-0.037-0.432-0.037-0.672V224.979z M302.776,226.455c0.885,0,1.634-0.208,2.247-0.624
		c0.612-0.416,1.062-1.011,1.348-1.784v-2.136h-2.523c-0.923,0-1.702,0.227-2.338,0.681c-0.635,0.454-0.952,1.015-0.952,1.683
		c0,0.639,0.202,1.162,0.606,1.569S302.105,226.455,302.776,226.455z"/>
	<path id="XMLID_62_" fill="#FFFFFF" d="M313.619,217.569l-0.576-0.053c-0.797,0-1.445,0.274-1.941,0.822
		c-0.498,0.548-0.822,1.27-0.971,2.167v6.231h-0.445v-9.51h0.363l0.082,1.652v0.325c0.248-0.68,0.617-1.208,1.105-1.586
		c0.49-0.378,1.092-0.567,1.807-0.567c0.127,0,0.242,0.01,0.35,0.031s0.199,0.042,0.277,0.066L313.619,217.569z"/>
	<path id="XMLID_64_" fill="#FFFFFF" d="M324.803,224.407c0-0.504-0.202-0.962-0.606-1.375c-0.403-0.413-1.108-0.737-2.115-0.971
		c-1.061-0.24-1.829-0.549-2.305-0.927s-0.713-0.939-0.713-1.683c0-0.68,0.27-1.25,0.808-1.709c0.539-0.46,1.265-0.69,2.178-0.69
		c0.983,0,1.759,0.246,2.325,0.738s0.836,1.134,0.808,1.925l-0.016,0.053h-0.38c0-0.621-0.246-1.15-0.738-1.586
		s-1.158-0.655-1.999-0.655c-0.836,0-1.468,0.192-1.897,0.576c-0.429,0.384-0.643,0.828-0.643,1.332
		c0,0.498,0.182,0.923,0.544,1.274c0.363,0.352,1.083,0.659,2.161,0.923c0.994,0.246,1.749,0.582,2.263,1.006
		c0.515,0.425,0.771,1.018,0.771,1.78c0,0.744-0.286,1.348-0.857,1.811c-0.572,0.463-1.331,0.694-2.276,0.694
		c-1.039,0-1.854-0.248-2.445-0.743c-0.591-0.495-0.867-1.097-0.828-1.806l0.017-0.053h0.362c0.044,0.75,0.347,1.292,0.907,1.626
		s1.224,0.501,1.987,0.501c0.825,0,1.479-0.205,1.963-0.615C324.561,225.421,324.803,224.946,324.803,224.407z"/>
	<path id="XMLID_66_" fill="#FFFFFF" d="M333.732,225.031c-0.28,0.604-0.68,1.069-1.199,1.397s-1.15,0.492-1.893,0.492
		c-0.918,0-1.637-0.347-2.156-1.042s-0.779-1.771-0.779-3.23v-5.423h0.445v5.44c0,1.289,0.223,2.241,0.668,2.856
		s1.047,0.923,1.806,0.923c0.929,0,1.643-0.243,2.14-0.729c0.498-0.486,0.815-1.131,0.953-1.934v-6.557h0.453v9.51h-0.371
		L333.732,225.031z"/>
	<path id="XMLID_68_" fill="#FFFFFF" d="M342.581,224.979c-0.308,0.574-0.767,1.042-1.377,1.402s-1.35,0.541-2.219,0.541
		c-0.83,0-1.481-0.242-1.954-0.725s-0.709-1.135-0.709-1.956c0-0.797,0.354-1.465,1.06-2.004s1.59-0.809,2.651-0.809h2.548v-1.389
		c0-0.791-0.237-1.408-0.713-1.85s-1.146-0.664-2.008-0.664c-0.809,0-1.459,0.208-1.951,0.624c-0.491,0.416-0.737,0.952-0.737,1.608
		l-0.371-0.018l-0.017-0.044c-0.033-0.738,0.236-1.364,0.808-1.876c0.572-0.513,1.328-0.769,2.269-0.769
		c0.956,0,1.723,0.258,2.3,0.773c0.578,0.516,0.866,1.26,0.866,2.232v4.764c0,0.334,0.018,0.659,0.054,0.976s0.095,0.63,0.178,0.94
		h-0.495c-0.071-0.416-0.12-0.728-0.145-0.936s-0.037-0.432-0.037-0.672V224.979z M338.985,226.455c0.886,0,1.635-0.208,2.247-0.624
		c0.613-0.416,1.062-1.011,1.349-1.784v-2.136h-2.523c-0.924,0-1.703,0.227-2.338,0.681s-0.952,1.015-0.952,1.683
		c0,0.639,0.202,1.162,0.606,1.569C337.777,226.251,338.315,226.455,338.985,226.455z"/>
	<path id="XMLID_71_" fill="#FFFFFF" d="M352.964,226.446c0.754,0,1.419-0.22,1.996-0.659s0.866-1.099,0.866-1.978h0.379
		l0.017,0.053c0.021,0.932-0.298,1.674-0.961,2.228c-0.662,0.554-1.428,0.831-2.297,0.831c-1.138,0-2.029-0.437-2.676-1.31
		c-0.646-0.873-0.969-2.021-0.969-3.445v-0.369c0-1.418,0.321-2.563,0.965-3.437s1.531-1.31,2.664-1.31
		c0.923,0,1.705,0.289,2.346,0.866s0.949,1.39,0.928,2.439l-0.017,0.053h-0.379c0-0.932-0.28-1.645-0.842-2.14
		c-0.561-0.495-1.239-0.743-2.036-0.743c-1.045,0-1.837,0.398-2.375,1.195c-0.539,0.797-0.809,1.822-0.809,3.076v0.369
		c0,1.266,0.27,2.295,0.809,3.089C351.111,226.049,351.909,226.446,352.964,226.446z"/>
	<path id="XMLID_73_" fill="#FFFFFF" d="M357.805,221.797c0-1.395,0.361-2.534,1.084-3.419s1.662-1.327,2.816-1.327
		c1.16,0,2.102,0.442,2.824,1.327s1.084,2.024,1.084,3.419v0.369c0,1.4-0.361,2.543-1.084,3.428s-1.659,1.327-2.808,1.327
		c-1.16,0-2.104-0.442-2.829-1.327s-1.088-2.027-1.088-3.428V221.797z M358.25,222.166c0,1.195,0.313,2.208,0.939,3.037
		c0.627,0.829,1.471,1.244,2.532,1.244c1.044,0,1.88-0.416,2.507-1.248s0.939-1.843,0.939-3.032v-0.369
		c0-1.166-0.315-2.169-0.948-3.01c-0.632-0.841-1.471-1.261-2.515-1.261c-1.051,0-1.889,0.42-2.516,1.261
		c-0.626,0.841-0.939,1.844-0.939,3.01V222.166z"/>
	<path id="XMLID_76_" fill="#FFFFFF" d="M368.129,217.227l0.058,1.96c0.27-0.68,0.662-1.206,1.18-1.578
		c0.517-0.372,1.154-0.558,1.913-0.558c0.973,0,1.702,0.327,2.189,0.98c0.486,0.653,0.729,1.689,0.729,3.107v5.599h-0.445v-5.616
		c0-1.318-0.222-2.247-0.664-2.786s-1.043-0.809-1.802-0.809c-0.962,0-1.688,0.306-2.177,0.918s-0.795,1.396-0.916,2.351v5.941
		h-0.445v-9.51H368.129z"/>
	<path id="XMLID_78_" fill="#FFFFFF" d="M377.917,214.66v2.566h2.193v0.483h-2.193v6.574c0,0.779,0.124,1.334,0.371,1.666
		c0.248,0.331,0.574,0.497,0.981,0.497c0.148,0,0.28-0.006,0.396-0.018c0.116-0.012,0.275-0.032,0.479-0.062l0.083,0.431
		c-0.138,0.047-0.28,0.079-0.429,0.097s-0.316,0.026-0.504,0.026c-0.599,0-1.054-0.208-1.364-0.624s-0.466-1.087-0.466-2.013v-6.574
		h-1.649v-0.483h1.649v-2.566H377.917z"/>
	<path id="XMLID_80_" fill="#FFFFFF" d="M387.813,224.979c-0.308,0.574-0.767,1.042-1.377,1.402s-1.35,0.541-2.219,0.541
		c-0.83,0-1.481-0.242-1.954-0.725s-0.709-1.135-0.709-1.956c0-0.797,0.354-1.465,1.06-2.004s1.59-0.809,2.651-0.809h2.548v-1.389
		c0-0.791-0.237-1.408-0.713-1.85s-1.146-0.664-2.008-0.664c-0.809,0-1.459,0.208-1.951,0.624c-0.491,0.416-0.737,0.952-0.737,1.608
		l-0.371-0.018l-0.017-0.044c-0.033-0.738,0.236-1.364,0.808-1.876c0.572-0.513,1.328-0.769,2.269-0.769
		c0.956,0,1.723,0.258,2.3,0.773c0.578,0.516,0.866,1.26,0.866,2.232v4.764c0,0.334,0.018,0.659,0.054,0.976s0.095,0.63,0.178,0.94
		h-0.495c-0.071-0.416-0.12-0.728-0.145-0.936s-0.037-0.432-0.037-0.672V224.979z M384.218,226.455c0.886,0,1.635-0.208,2.247-0.624
		c0.613-0.416,1.062-1.011,1.349-1.784v-2.136h-2.523c-0.924,0-1.703,0.227-2.338,0.681S382,223.607,382,224.275
		c0,0.639,0.202,1.162,0.606,1.569C383.01,226.251,383.548,226.455,384.218,226.455z"/>
	<path id="XMLID_83_" fill="#FFFFFF" d="M400.769,224.979c-0.308,0.574-0.767,1.042-1.377,1.402s-1.35,0.541-2.219,0.541
		c-0.83,0-1.481-0.242-1.954-0.725s-0.709-1.135-0.709-1.956c0-0.797,0.354-1.465,1.06-2.004s1.59-0.809,2.651-0.809h2.548v-1.389
		c0-0.791-0.237-1.408-0.713-1.85s-1.146-0.664-2.008-0.664c-0.809,0-1.459,0.208-1.951,0.624c-0.491,0.416-0.737,0.952-0.737,1.608
		l-0.371-0.018l-0.017-0.044c-0.033-0.738,0.236-1.364,0.808-1.876c0.572-0.513,1.328-0.769,2.269-0.769
		c0.956,0,1.723,0.258,2.3,0.773c0.578,0.516,0.866,1.26,0.866,2.232v4.764c0,0.334,0.018,0.659,0.054,0.976s0.095,0.63,0.178,0.94
		h-0.495c-0.071-0.416-0.12-0.728-0.145-0.936s-0.037-0.432-0.037-0.672V224.979z M397.173,226.455c0.886,0,1.635-0.208,2.247-0.624
		c0.613-0.416,1.062-1.011,1.349-1.784v-2.136h-2.523c-0.924,0-1.703,0.227-2.338,0.681s-0.952,1.015-0.952,1.683
		c0,0.639,0.202,1.162,0.606,1.569C395.965,226.251,396.503,226.455,397.173,226.455z"/>
	<path id="XMLID_86_" fill="#FFFFFF" d="M405.007,214.66v2.566h2.193v0.483h-2.193v6.574c0,0.779,0.124,1.334,0.371,1.666
		c0.248,0.331,0.574,0.497,0.981,0.497c0.148,0,0.28-0.006,0.396-0.018c0.116-0.012,0.275-0.032,0.479-0.062l0.083,0.431
		c-0.138,0.047-0.28,0.079-0.429,0.097s-0.316,0.026-0.504,0.026c-0.599,0-1.054-0.208-1.364-0.624s-0.466-1.087-0.466-2.013v-6.574
		h-1.649v-0.483h1.649v-2.566H405.007z"/>
	<path id="XMLID_88_" fill="#FFFFFF" d="M413.236,217.569l-0.577-0.053c-0.797,0-1.444,0.274-1.941,0.822
		c-0.498,0.548-0.821,1.27-0.97,2.167v6.231h-0.445v-9.51h0.363l0.082,1.652v0.325c0.248-0.68,0.616-1.208,1.105-1.586
		s1.091-0.567,1.806-0.567c0.127,0,0.243,0.01,0.351,0.031s0.199,0.042,0.276,0.066L413.236,217.569z"/>
	<path id="XMLID_90_" fill="#FFFFFF" d="M420.51,224.979c-0.308,0.574-0.767,1.042-1.377,1.402s-1.35,0.541-2.219,0.541
		c-0.83,0-1.481-0.242-1.954-0.725s-0.709-1.135-0.709-1.956c0-0.797,0.354-1.465,1.06-2.004s1.59-0.809,2.651-0.809h2.548v-1.389
		c0-0.791-0.237-1.408-0.713-1.85s-1.146-0.664-2.008-0.664c-0.809,0-1.459,0.208-1.951,0.624c-0.491,0.416-0.737,0.952-0.737,1.608
		l-0.371-0.018l-0.017-0.044c-0.033-0.738,0.236-1.364,0.808-1.876c0.572-0.513,1.328-0.769,2.269-0.769
		c0.956,0,1.723,0.258,2.3,0.773c0.578,0.516,0.866,1.26,0.866,2.232v4.764c0,0.334,0.018,0.659,0.054,0.976s0.095,0.63,0.178,0.94
		h-0.495c-0.071-0.416-0.12-0.728-0.145-0.936s-0.037-0.432-0.037-0.672V224.979z M416.914,226.455c0.886,0,1.635-0.208,2.247-0.624
		c0.613-0.416,1.062-1.011,1.349-1.784v-2.136h-2.523c-0.924,0-1.703,0.227-2.338,0.681s-0.952,1.015-0.952,1.683
		c0,0.639,0.202,1.162,0.606,1.569C415.706,226.251,416.244,226.455,416.914,226.455z"/>
	<path id="XMLID_93_" fill="#FFFFFF" d="M425.87,224.724l0.421,1.283h0.05l0.429-1.283l2.746-7.497h0.478l-3.472,9.501l0.009,0.009
		h-0.429l-3.464-9.51h0.479L425.87,224.724z"/>
	<path id="XMLID_95_" fill="#FFFFFF" d="M434.702,226.921c-1.017,0-1.895-0.438-2.635-1.314c-0.739-0.876-1.108-1.964-1.108-3.265
		v-0.562c0-1.365,0.357-2.495,1.071-3.388c0.715-0.894,1.598-1.34,2.647-1.34c1.006,0,1.826,0.352,2.462,1.055
		c0.635,0.703,0.952,1.646,0.952,2.83v0.729h-6.688v0.114v0.562c0,1.148,0.315,2.12,0.948,2.914c0.632,0.794,1.415,1.191,2.35,1.191
		c0.665,0,1.222-0.097,1.67-0.29s0.832-0.483,1.15-0.87l0.239,0.369c-0.352,0.416-0.779,0.731-1.282,0.945
		S435.384,226.921,434.702,226.921z M434.678,217.525c-0.885,0-1.622,0.344-2.21,1.033s-0.921,1.548-0.998,2.58l0.025,0.053h6.151
		v-0.29c0-0.967-0.275-1.771-0.824-2.413C436.272,217.846,435.558,217.525,434.678,217.525z M436.261,213.544h0.644l0.017,0.044
		l-1.905,2.294h-0.552l-0.017-0.044L436.261,213.544z"/>
	<path id="XMLID_99_" fill="#FFFFFF" d="M445.637,224.407c0-0.504-0.202-0.962-0.606-1.375c-0.403-0.413-1.108-0.737-2.115-0.971
		c-1.061-0.24-1.829-0.549-2.305-0.927s-0.713-0.939-0.713-1.683c0-0.68,0.27-1.25,0.808-1.709c0.539-0.46,1.265-0.69,2.178-0.69
		c0.983,0,1.759,0.246,2.325,0.738s0.836,1.134,0.808,1.925L446,219.767h-0.38c0-0.621-0.246-1.15-0.738-1.586
		s-1.158-0.655-1.999-0.655c-0.836,0-1.468,0.192-1.897,0.576c-0.429,0.384-0.643,0.828-0.643,1.332
		c0,0.498,0.182,0.923,0.544,1.274c0.363,0.352,1.083,0.659,2.161,0.923c0.994,0.246,1.749,0.582,2.263,1.006
		c0.515,0.425,0.771,1.018,0.771,1.78c0,0.744-0.286,1.348-0.857,1.811c-0.572,0.463-1.331,0.694-2.276,0.694
		c-1.039,0-1.854-0.248-2.445-0.743c-0.591-0.495-0.867-1.097-0.828-1.806l0.017-0.053h0.362c0.044,0.75,0.347,1.292,0.907,1.626
		s1.224,0.501,1.987,0.501c0.825,0,1.479-0.205,1.963-0.615C445.395,225.421,445.637,224.946,445.637,224.407z"/>
	<path id="XMLID_101_" fill="#FFFFFF" d="M149.228,243.572c0-1.506,0.297-2.703,0.891-3.59c0.594-0.889,1.418-1.332,2.474-1.332
		c0.698,0,1.302,0.167,1.81,0.501s0.914,0.791,1.216,1.371v-5.897h0.445v13.711h-0.429l-0.017-1.477
		c-0.297,0.51-0.705,0.914-1.225,1.213s-1.125,0.448-1.818,0.448c-1.05,0-1.871-0.428-2.461-1.283s-0.887-2.016-0.887-3.48V243.572z
		 M149.689,243.757c0,1.312,0.243,2.355,0.73,3.129c0.486,0.773,1.203,1.16,2.148,1.16c0.775,0,1.42-0.188,1.934-0.562
		c0.514-0.375,0.886-0.876,1.117-1.503v-4.456c-0.214-0.68-0.561-1.249-1.039-1.71c-0.478-0.459-1.144-0.689-1.996-0.689
		c-0.946,0-1.665,0.412-2.156,1.234c-0.492,0.824-0.738,1.895-0.738,3.213V243.757z"/>
	<path id="XMLID_104_" fill="#FFFFFF" d="M158.183,243.396c0-1.395,0.362-2.534,1.084-3.419c0.723-0.885,1.662-1.327,2.816-1.327
		c1.16,0,2.101,0.442,2.824,1.327c0.723,0.885,1.084,2.024,1.084,3.419v0.369c0,1.4-0.362,2.543-1.084,3.428
		c-0.723,0.885-1.659,1.327-2.808,1.327c-1.16,0-2.103-0.442-2.828-1.327c-0.726-0.885-1.089-2.027-1.089-3.428V243.396z
		 M158.628,243.766c0,1.195,0.313,2.208,0.94,3.037c0.626,0.829,1.47,1.243,2.531,1.243c1.044,0,1.88-0.416,2.507-1.248
		c0.626-0.832,0.94-1.843,0.94-3.032v-0.369c0-1.166-0.316-2.169-0.948-3.01c-0.632-0.841-1.471-1.262-2.515-1.262
		c-1.05,0-1.889,0.421-2.515,1.262c-0.627,0.841-0.94,1.844-0.94,3.01V243.766z"/>
	<path id="XMLID_107_" fill="#FFFFFF" d="M172.466,238.826l0.058,1.96c0.27-0.674,0.657-1.198,1.163-1.573s1.122-0.562,1.847-0.562
		c0.77,0,1.395,0.21,1.876,0.629c0.481,0.419,0.812,1.064,0.994,1.938c0.236-0.809,0.623-1.439,1.159-1.895
		c0.536-0.453,1.205-0.681,2.008-0.681c0.984,0,1.732,0.343,2.243,1.028s0.767,1.764,0.767,3.234v5.423h-0.454v-5.44
		c0-1.377-0.23-2.35-0.692-2.918s-1.078-0.853-1.847-0.853c-0.946,0-1.661,0.304-2.144,0.909c-0.484,0.607-0.787,1.391-0.907,2.352
		c0,0.117,0.002,0.219,0.008,0.303c0.005,0.086,0.008,0.169,0.008,0.251v5.405h-0.454v-5.44c0-1.383-0.231-2.356-0.693-2.923
		c-0.462-0.564-1.08-0.848-1.855-0.848c-0.923,0-1.625,0.289-2.103,0.865c-0.479,0.578-0.784,1.326-0.916,2.246v6.1h-0.454v-9.51
		H172.466z"/>
	<path id="XMLID_109_" fill="#FFFFFF" d="M190.353,248.521c-1.017,0-1.896-0.438-2.635-1.313c-0.74-0.876-1.109-1.965-1.109-3.266
		v-0.562c0-1.365,0.357-2.494,1.072-3.389c0.714-0.893,1.597-1.34,2.647-1.34c1.006,0,1.827,0.352,2.461,1.055
		c0.635,0.703,0.953,1.646,0.953,2.83v0.729h-6.688v0.114v0.562c0,1.148,0.316,2.12,0.949,2.914c0.632,0.794,1.416,1.19,2.35,1.19
		c0.665,0,1.222-0.097,1.67-0.29c0.448-0.193,0.832-0.483,1.15-0.87l0.239,0.369c-0.352,0.416-0.779,0.731-1.282,0.944
		C191.627,248.413,191.035,248.521,190.353,248.521z M190.328,239.125c-0.885,0-1.622,0.345-2.21,1.033s-0.921,1.548-0.998,2.579
		l0.025,0.053h6.152v-0.29c0-0.967-0.275-1.771-0.825-2.412C191.922,239.445,191.208,239.125,190.328,239.125z"/>
	<path id="XMLID_112_" fill="#FFFFFF" d="M196.2,238.826l0.058,1.96c0.269-0.68,0.663-1.205,1.179-1.577s1.154-0.559,1.913-0.559
		c0.973,0,1.703,0.327,2.189,0.98c0.487,0.653,0.73,1.688,0.73,3.106v5.599h-0.445v-5.616c0-1.318-0.222-2.247-0.664-2.786
		s-1.043-0.809-1.802-0.809c-0.962,0-1.688,0.307-2.177,0.918c-0.489,0.613-0.794,1.396-0.915,2.352v5.941h-0.445v-9.51H196.2z"/>
	<path id="XMLID_114_" fill="#FFFFFF" d="M211.06,246.631c-0.28,0.604-0.68,1.069-1.2,1.397s-1.15,0.492-1.893,0.492
		c-0.918,0-1.637-0.347-2.157-1.042c-0.52-0.693-0.779-1.771-0.779-3.229v-5.423h0.445v5.44c0,1.289,0.223,2.241,0.668,2.856
		s1.047,0.923,1.806,0.923c0.929,0,1.642-0.243,2.14-0.729c0.497-0.486,0.815-1.131,0.952-1.934v-6.557h0.454v9.51h-0.371
		L211.06,246.631z"/>
	<path id="XMLID_116_" fill="#FFFFFF" d="M223.816,246.007c0-0.504-0.202-0.962-0.606-1.376c-0.404-0.412-1.109-0.736-2.115-0.971
		c-1.061-0.24-1.83-0.549-2.305-0.928c-0.476-0.377-0.713-0.938-0.713-1.683c0-0.68,0.269-1.249,0.808-1.71
		c0.539-0.459,1.264-0.689,2.177-0.689c0.984,0,1.759,0.246,2.326,0.738c0.566,0.492,0.835,1.134,0.808,1.925l-0.017,0.053H223.8
		c0-0.621-0.246-1.149-0.738-1.587c-0.492-0.436-1.159-0.654-2-0.654c-0.835,0-1.468,0.192-1.896,0.576s-0.643,0.827-0.643,1.331
		c0,0.498,0.181,0.923,0.544,1.274s1.083,0.659,2.161,0.923c0.995,0.246,1.75,0.582,2.264,1.007s0.771,1.018,0.771,1.779
		c0,0.744-0.286,1.348-0.857,1.811c-0.572,0.463-1.331,0.694-2.276,0.694c-1.039,0-1.854-0.247-2.445-0.743
		c-0.591-0.494-0.867-1.097-0.829-1.806l0.016-0.053h0.363c0.044,0.75,0.347,1.292,0.907,1.626c0.561,0.334,1.223,0.501,1.987,0.501
		c0.825,0,1.479-0.205,1.963-0.615C223.574,247.021,223.816,246.546,223.816,246.007z"/>
	<path id="XMLID_118_" fill="#FFFFFF" d="M232.748,246.631c-0.28,0.604-0.68,1.069-1.2,1.397s-1.15,0.492-1.893,0.492
		c-0.918,0-1.637-0.347-2.157-1.042c-0.52-0.693-0.779-1.771-0.779-3.229v-5.423h0.445v5.44c0,1.289,0.223,2.241,0.668,2.856
		s1.047,0.923,1.806,0.923c0.929,0,1.642-0.243,2.14-0.729c0.497-0.486,0.815-1.131,0.952-1.934v-6.557h0.454v9.51h-0.371
		L232.748,246.631z"/>
	<path id="XMLID_120_" fill="#FFFFFF" d="M242.816,243.757c0,1.465-0.297,2.625-0.891,3.48s-1.413,1.283-2.458,1.283
		c-0.698,0-1.307-0.149-1.827-0.448s-0.925-0.703-1.216-1.213v5.133h-0.445v-13.166h0.346l0.091,1.705
		c0.297-0.586,0.701-1.046,1.212-1.38s1.119-0.501,1.822-0.501c1.05,0,1.874,0.443,2.47,1.332c0.597,0.887,0.895,2.084,0.895,3.59
		V243.757z M242.363,243.572c0-1.318-0.249-2.389-0.747-3.213c-0.498-0.822-1.216-1.234-2.156-1.234
		c-0.863,0-1.534,0.231-2.012,0.694c-0.478,0.463-0.819,1.031-1.022,1.705v4.447c0.22,0.633,0.588,1.137,1.105,1.512
		s1.166,0.562,1.946,0.562c0.94,0,1.656-0.387,2.148-1.16c0.492-0.773,0.738-1.816,0.738-3.129V243.572z"/>
	<path id="XMLID_123_" fill="#FFFFFF" d="M248.284,248.521c-1.017,0-1.896-0.438-2.635-1.313c-0.74-0.876-1.109-1.965-1.109-3.266
		v-0.562c0-1.365,0.357-2.494,1.072-3.389c0.714-0.893,1.597-1.34,2.647-1.34c1.006,0,1.827,0.352,2.461,1.055
		c0.635,0.703,0.953,1.646,0.953,2.83v0.729h-6.688v0.114v0.562c0,1.148,0.316,2.12,0.949,2.914c0.632,0.794,1.416,1.19,2.35,1.19
		c0.665,0,1.222-0.097,1.67-0.29c0.448-0.193,0.832-0.483,1.15-0.87l0.239,0.369c-0.352,0.416-0.779,0.731-1.282,0.944
		C249.558,248.413,248.965,248.521,248.284,248.521z M248.259,239.125c-0.885,0-1.622,0.345-2.21,1.033s-0.921,1.548-0.998,2.579
		l0.025,0.053h6.152v-0.29c0-0.967-0.275-1.771-0.825-2.412C249.853,239.445,249.138,239.125,248.259,239.125z"/>
	<path id="XMLID_126_" fill="#FFFFFF" d="M257.685,239.169l-0.577-0.053c-0.797,0-1.444,0.274-1.942,0.821
		c-0.497,0.549-0.82,1.271-0.969,2.167v6.231h-0.445v-9.51h0.363l0.082,1.652v0.325c0.248-0.68,0.616-1.208,1.105-1.587
		c0.489-0.377,1.091-0.566,1.806-0.566c0.126,0,0.243,0.011,0.351,0.031s0.199,0.042,0.276,0.065L257.685,239.169z"/>
	<path id="XMLID_128_" fill="#FFFFFF" d="M259.911,235.838h-0.445v-1.213h0.445V235.838z M259.911,248.336h-0.445v-9.51h0.445
		V248.336z"/>
	<path id="XMLID_131_" fill="#FFFFFF" d="M262.138,243.396c0-1.395,0.361-2.534,1.084-3.419c0.724-0.885,1.662-1.327,2.816-1.327
		c1.16,0,2.102,0.442,2.824,1.327s1.085,2.024,1.085,3.419v0.369c0,1.4-0.362,2.543-1.085,3.428s-1.658,1.327-2.808,1.327
		c-1.16,0-2.103-0.442-2.828-1.327c-0.727-0.885-1.089-2.027-1.089-3.428V243.396z M262.583,243.766c0,1.195,0.313,2.208,0.94,3.037
		c0.626,0.829,1.47,1.243,2.531,1.243c1.044,0,1.88-0.416,2.507-1.248s0.94-1.843,0.94-3.032v-0.369c0-1.166-0.316-2.169-0.948-3.01
		c-0.633-0.841-1.471-1.262-2.516-1.262c-1.05,0-1.889,0.421-2.515,1.262c-0.627,0.841-0.94,1.844-0.94,3.01V243.766z"/>
	<path id="XMLID_134_" fill="#FFFFFF" d="M276.017,239.169l-0.577-0.053c-0.798,0-1.445,0.274-1.942,0.821
		c-0.498,0.549-0.82,1.271-0.969,2.167v6.231h-0.445v-9.51h0.362l0.083,1.652v0.325c0.247-0.68,0.615-1.208,1.104-1.587
		c0.489-0.377,1.092-0.566,1.807-0.566c0.126,0,0.243,0.011,0.35,0.031c0.107,0.021,0.199,0.042,0.276,0.065L276.017,239.169z"/>
	<path id="XMLID_136_" fill="#FFFFFF" d="M277.394,248.336h-0.709v-1.143h0.709V248.336z"/>
</g>
<path id="XMLID_12_" fill="#757576" d="M67.952,145.916c-20.072,0-36.362,16.29-36.362,36.362s16.29,36.362,36.362,36.362
	s36.362-16.29,36.362-36.362S88.024,145.916,67.952,145.916z M67.952,156.825c6.036,0,10.909,4.872,10.909,10.909
	s-4.872,10.909-10.909,10.909s-10.909-4.872-10.909-10.909S61.916,156.825,67.952,156.825z M67.952,208.459
	c-9.09,0-17.126-4.654-21.817-11.709c0.109-7.236,14.545-11.199,21.817-11.199c7.236,0,21.708,3.963,21.817,11.199
	C85.079,203.805,77.043,208.459,67.952,208.459z"/>
<path id="XMLID_6_" fill="none" d="M20.318,138.644h87.269v87.269H20.318V138.644z"/>
<g id="XMLID_4_">
</g>
<g id="XMLID_10_">
</g>
<g id="XMLID_154_">
</g>
<g id="XMLID_155_">
</g>
<g id="XMLID_156_">
</g>
<g id="XMLID_157_">
</g>
</svg>
