<svg id="Layer_1" data-name="Layer 1" xmlns="http://www.w3.org/2000/svg" viewBox="0 0 86.4 85.54"><title>paper-bag</title><path d="M196.53,87.59a5.19,5.19,0,0,1-5.18,5.18h-76a5.19,5.19,0,0,1-5.18-5.18V24.51h86.4V87.59Z" transform="translate(-110.13 -7.23)" style="fill:#f39c12"/><rect x="3.46" width="79.49" height="17.28" style="fill:#e57d22"/><polygon points="82.95 17.28 76.04 17.28 76.04 6.91 82.95 0 82.95 17.28" style="fill:#f39c12"/><polygon points="3.46 17.28 10.37 17.28 10.37 6.91 3.46 0 3.46 17.28" style="fill:#f39c12"/><polygon points="10.37 6.91 10.37 17.28 0 17.28 10.37 6.91" style="fill:#f1c40f"/><polygon points="76.04 6.91 76.04 17.28 86.4 17.28 76.04 6.91" style="fill:#f1c40f"/><circle cx="22.47" cy="34.56" r="4.32" style="opacity:0.30000001192092896;isolation:isolate"/><circle cx="63.94" cy="34.56" r="4.32" style="opacity:0.30000001192092896;isolation:isolate"/><path d="M174.07,41.79a20.74,20.74,0,0,1-41.47,0" transform="translate(-110.13 -7.23)" style="fill:none;stroke:#fff;stroke-linecap:round;stroke-miterlimit:10;stroke-width:6px"/></svg>